<svg width="394" height="104" viewBox="0 0 394 104" fill="none" xmlns="http://www.w3.org/2000/svg">
<path d="M104 52C104 80.7188 80.7188 104 52 104C23.2812 104 0 80.7188 0 52C0 23.2812 23.2812 0 52 0C80.7188 0 104 23.2812 104 52Z" fill="url(#paint0_linear)"/>
<path d="M62.208 45.712C61.68 45.856 61.416 46.024 61.416 46.216C61.416 46.36 61.992 46.648 63.144 47.08C64.296 47.512 65.376 48.184 66.384 49.096C67.44 50.008 68.184 51.112 68.616 52.408C69.288 54.376 69.624 56.488 69.624 58.744C69.624 61 69.792 62.872 70.128 64.36C70.464 65.8 70.872 66.904 71.352 67.672C72.312 69.304 73.2 70.312 74.016 70.696L74.52 70.984C74.808 71.176 74.952 71.416 74.952 71.704C74.952 72.424 73.776 73.048 71.424 73.576C69.072 74.152 67.248 74.44 65.952 74.44C63.408 74.44 61.776 73.432 61.056 71.416C60.384 69.352 60.048 65.848 60.048 60.904V56.944C60.048 52.768 58.8 50.104 56.304 48.952C55.344 48.52 54.192 48.304 52.848 48.304H52.776C52.344 48.304 52.128 47.896 52.128 47.08C52.128 46.216 52.368 45.352 52.848 44.488C53.376 43.624 53.832 43.192 54.216 43.192C55.8 43.192 57.168 42.904 58.32 42.328C59.472 41.704 60.312 40.96 60.84 40.096C61.944 38.272 62.544 36.712 62.64 35.416V34.48C62.64 32.704 62.352 31.216 61.776 30.016C61.2 28.768 60.48 27.904 59.616 27.424C58.176 26.656 56.712 26.272 55.224 26.272C53.736 26.272 52.512 26.392 51.552 26.632C50.208 27.016 49.536 27.424 49.536 27.856C49.104 34.144 48.888 40.216 48.888 46.072C48.888 51.88 48.96 56.344 49.104 59.464C49.296 62.536 49.464 65.032 49.608 66.952C49.8 68.824 49.896 69.928 49.896 70.264C49.896 70.888 49.728 71.32 49.392 71.56C47.424 73.384 44.328 74.296 40.104 74.296C39.384 74.296 39.024 74.056 39.024 73.576C39.024 73.432 39.096 73.096 39.24 72.568C39.72 71.464 40.056 67.96 40.248 62.056C40.488 56.152 40.608 50.776 40.608 45.928C40.608 41.032 40.512 37.072 40.32 34.048C40.032 29.488 39.552 26.752 38.88 25.84C38.352 25.168 38.088 24.712 38.088 24.472C38.088 24.184 38.352 23.896 38.88 23.608C41.952 22.168 47.52 21.448 55.584 21.448C62.064 21.448 66.912 23.272 70.128 26.92C71.856 28.936 72.72 31.456 72.72 34.48C72.72 36.304 72.36 37.936 71.64 39.376C70.92 40.816 70.032 41.92 68.976 42.688C66.96 44.224 65.064 45.16 63.288 45.496L62.208 45.712Z" fill="#3B7536"/>
<path d="M83.0391 54.712L83.1111 56.512C83.1111 56.8 83.3031 56.944 83.6871 56.944C85.2231 56.8 86.5671 56.416 87.7191 55.792C88.8711 55.12 89.7351 54.376 90.3111 53.56C91.4631 51.784 92.0871 50.248 92.1831 48.952L92.2551 48.088C92.2551 45.496 91.2231 44.2 89.1591 44.2C87.6231 44.2 86.3751 44.872 85.4151 46.216C83.8311 48.328 83.0391 51.16 83.0391 54.712ZM98.7351 64.288C98.7351 66.112 98.3511 67.72 97.5831 69.112C96.8631 70.456 96.0231 71.464 95.0631 72.136C94.1511 72.76 93.0711 73.264 91.8231 73.648C90.2391 74.128 88.7271 74.368 87.2871 74.368C83.2551 74.368 80.2791 72.856 78.3591 69.832C76.4391 66.808 75.4791 62.968 75.4791 58.312C75.4791 53.608 76.6551 49.432 79.0071 45.784C81.4071 42.136 84.9831 40.312 89.7351 40.312C94.0551 40.312 96.9831 41.824 98.5191 44.848C99.1431 46 99.4551 47.104 99.4551 48.16C99.4551 49.168 99.4071 49.984 99.3111 50.608C99.2151 51.184 98.8791 52.072 98.3031 53.272C97.7271 54.472 96.9591 55.552 95.9991 56.512C95.0391 57.472 93.5271 58.384 91.4631 59.248C89.3991 60.112 86.9751 60.688 84.1911 60.976C83.8071 60.976 83.6151 61.144 83.6151 61.48C83.6151 61.912 83.7591 62.56 84.0471 63.424C84.3831 64.24 84.7431 64.936 85.1271 65.512C86.1831 66.856 87.7431 67.528 89.8071 67.528C91.8711 67.528 93.6231 66.856 95.0631 65.512C95.8311 64.792 96.4551 63.904 96.9351 62.848C97.1271 62.464 97.3671 62.272 97.6551 62.272C97.9911 62.272 98.2551 62.536 98.4471 63.064C98.6391 63.592 98.7351 64 98.7351 64.288Z" fill="#3B7536"/>
<path d="M126.251 64.72C126.251 67.456 125.147 69.736 122.939 71.56C120.779 73.336 118.187 74.224 115.163 74.224C110.747 74.224 107.507 72.904 105.443 70.264C103.379 67.576 102.347 63.952 102.347 59.392C102.347 54.544 103.427 50.248 105.587 46.504C106.643 44.584 108.155 43.072 110.123 41.968C112.091 40.864 114.395 40.312 117.035 40.312C121.019 40.312 123.827 41.656 125.459 44.344C126.131 45.448 126.467 46.744 126.467 48.232C126.467 50.536 125.507 52.264 123.587 53.416C122.819 53.848 122.099 54.064 121.427 54.064C120.803 54.064 120.275 54.04 119.843 53.992C119.459 53.896 118.931 53.56 118.259 52.984C117.587 52.408 117.251 51.616 117.251 50.608C117.299 50.08 117.707 49.648 118.475 49.312C119.195 48.88 119.555 48.112 119.555 47.008C119.555 45.136 118.403 44.2 116.099 44.2C115.523 44.2 114.827 44.464 114.011 44.992C113.243 45.472 112.595 46.12 112.067 46.936C111.539 47.704 111.035 48.952 110.555 50.68C110.123 52.36 109.907 53.992 109.907 55.576C109.907 57.112 109.955 58.288 110.051 59.104C110.195 59.872 110.459 60.952 110.843 62.344C111.275 63.688 112.043 64.792 113.147 65.656C114.299 66.52 115.715 66.952 117.395 66.952C119.411 66.952 121.187 66.112 122.723 64.432C123.347 63.76 123.851 62.944 124.235 61.984C124.427 61.6 124.667 61.408 124.955 61.408C125.387 61.408 125.699 61.816 125.891 62.632C126.131 63.4 126.251 64.096 126.251 64.72Z" fill="#3B7536"/>
<path d="M137.474 34.48L135.746 34.408C134.45 34.408 133.61 34.72 133.226 35.344C133.13 35.488 133.01 35.56 132.866 35.56C132.242 35.56 131.93 34.504 131.93 32.392C131.93 30.232 132.242 28.864 132.866 28.288C133.538 27.712 134.666 27.424 136.25 27.424C137.882 27.424 138.986 27.712 139.562 28.288C140.138 28.816 140.426 29.728 140.426 31.024C140.426 32.32 140.21 33.232 139.778 33.76C139.346 34.24 138.578 34.48 137.474 34.48ZM131.714 70.84L132.506 54.064C132.506 50.08 132.05 47.368 131.138 45.928C130.85 45.448 130.514 45.088 130.13 44.848C129.842 44.752 129.698 44.56 129.698 44.272C129.698 43.408 130.922 42.568 133.37 41.752C135.818 40.936 137.594 40.528 138.698 40.528C139.85 40.528 140.45 40.816 140.498 41.392C140.498 42.352 140.354 45.088 140.066 49.6C139.826 54.064 139.706 58.768 139.706 63.712C139.706 68.656 139.994 71.728 140.57 72.928C140.714 73.168 140.786 73.408 140.786 73.648C140.786 74.272 139.874 74.584 138.05 74.584C136.226 74.584 134.354 74.104 132.434 73.144C131.954 72.904 131.714 72.136 131.714 70.84Z" fill="#3B7536"/>
<path d="M145.896 61.984C145.992 57.136 146.04 53.152 146.04 50.032C146.04 46.912 145.824 43.936 145.392 41.104C145.392 40.624 145.872 40.384 146.832 40.384C147.792 40.384 148.608 40.504 149.28 40.744C150 40.984 150.504 41.248 150.792 41.536C151.56 42.304 151.992 42.688 152.088 42.688C152.232 42.688 152.616 42.472 153.24 42.04C155.112 40.84 157.176 40.24 159.432 40.24C161.736 40.24 163.728 40.816 165.408 41.968C167.136 43.12 168.36 44.632 169.08 46.504C170.376 49.72 171.024 53.128 171.024 56.728C171.024 60.28 170.376 63.832 169.08 67.384C168.36 69.304 167.304 70.888 165.912 72.136C164.52 73.336 162.888 73.936 161.016 73.936C157.32 73.936 155.472 71.8 155.472 67.528C155.472 66.376 155.712 65.8 156.192 65.8C156.288 65.8 156.552 65.92 156.984 66.16C157.464 66.352 157.92 66.448 158.352 66.448C161.76 66.448 163.464 62.848 163.464 55.648C163.464 48.4 161.64 44.776 157.992 44.776C156.984 44.776 156.12 45.016 155.4 45.496C154.728 45.928 154.296 46.36 154.104 46.792L153.816 47.512C153.144 51.832 152.808 60.16 152.808 72.496C152.808 78.064 152.904 82.048 153.096 84.448C153.336 86.896 153.456 88.36 153.456 88.84C153.456 89.32 153.312 89.752 153.024 90.136C152.064 91.384 150.768 92.488 149.136 93.448C147.504 94.456 146.064 94.96 144.816 94.96C144.336 94.96 144.096 94.648 144.096 94.024C144.864 89.176 145.464 78.496 145.896 61.984Z" fill="#3B7536"/>
<path d="M181.406 54.712L181.478 56.512C181.478 56.8 181.67 56.944 182.054 56.944C183.59 56.8 184.934 56.416 186.086 55.792C187.238 55.12 188.102 54.376 188.678 53.56C189.83 51.784 190.454 50.248 190.55 48.952L190.622 48.088C190.622 45.496 189.59 44.2 187.526 44.2C185.99 44.2 184.742 44.872 183.782 46.216C182.198 48.328 181.406 51.16 181.406 54.712ZM197.102 64.288C197.102 66.112 196.718 67.72 195.95 69.112C195.23 70.456 194.39 71.464 193.43 72.136C192.518 72.76 191.438 73.264 190.19 73.648C188.606 74.128 187.094 74.368 185.654 74.368C181.622 74.368 178.646 72.856 176.726 69.832C174.806 66.808 173.846 62.968 173.846 58.312C173.846 53.608 175.022 49.432 177.374 45.784C179.774 42.136 183.35 40.312 188.102 40.312C192.422 40.312 195.35 41.824 196.886 44.848C197.51 46 197.822 47.104 197.822 48.16C197.822 49.168 197.774 49.984 197.678 50.608C197.582 51.184 197.246 52.072 196.67 53.272C196.094 54.472 195.326 55.552 194.366 56.512C193.406 57.472 191.894 58.384 189.83 59.248C187.766 60.112 185.342 60.688 182.558 60.976C182.174 60.976 181.982 61.144 181.982 61.48C181.982 61.912 182.126 62.56 182.414 63.424C182.75 64.24 183.11 64.936 183.494 65.512C184.55 66.856 186.11 67.528 188.174 67.528C190.238 67.528 191.99 66.856 193.43 65.512C194.198 64.792 194.822 63.904 195.302 62.848C195.494 62.464 195.734 62.272 196.022 62.272C196.358 62.272 196.622 62.536 196.814 63.064C197.006 63.592 197.102 64 197.102 64.288Z" fill="#3B7536"/>
<path d="M219.628 21.736L229.996 22.312C234.604 22.312 237.916 21.76 239.932 20.656C240.22 20.464 240.46 20.368 240.652 20.368C240.892 20.368 241.012 20.704 241.012 21.376C241.012 22.048 240.604 23.152 239.788 24.688C238.588 27.04 236.86 28.216 234.604 28.216L230.644 28.144C230.26 28.144 230.02 28.36 229.924 28.792C229.588 35.848 229.42 43.48 229.42 51.688C229.42 59.848 229.756 65.992 230.428 70.12V70.48C230.428 71.68 229.276 72.64 226.972 73.36C224.716 74.08 222.58 74.44 220.564 74.44C219.604 74.44 219.124 74.176 219.124 73.648C219.124 73.504 219.196 73.168 219.34 72.64C219.868 71.584 220.324 66.472 220.708 57.304C221.14 48.136 221.356 41.224 221.356 36.568L221.212 28.72C221.212 28.432 221.068 28.264 220.78 28.216C219.772 28.024 218.62 27.928 217.324 27.928C214.732 27.928 212.812 28.456 211.564 29.512C211.228 29.752 210.916 29.872 210.628 29.872C210.292 29.872 210.124 29.68 210.124 29.296C210.124 28.72 210.436 27.928 211.06 26.92C211.636 25.912 212.26 25.048 212.932 24.328C214.564 22.6 216.796 21.736 219.628 21.736Z" fill="#3B7536"/>
<path d="M260.44 53.704L260.728 56.224C260.728 57.136 259.864 57.592 258.136 57.592C254.632 57.592 252.88 56.272 252.88 53.632C252.88 53.008 253.048 52.144 253.384 51.04C253.72 49.936 253.888 48.976 253.888 48.16C253.888 47.344 253.648 46.648 253.168 46.072C252.688 45.448 251.992 45.136 251.08 45.136C250.168 45.136 249.376 45.472 248.704 46.144C248.08 46.768 247.696 47.416 247.552 48.088L247.264 49.096C246.976 50.584 246.832 53.08 246.832 56.584C246.832 60.04 246.88 62.776 246.976 64.792C247.072 66.76 247.168 68.128 247.264 68.896C247.36 69.616 247.408 70.048 247.408 70.192C247.408 71.392 246.664 72.352 245.176 73.072C243.688 73.84 242.2 74.224 240.712 74.224C239.224 74.224 238.48 73.912 238.48 73.288L238.84 71.056C239.512 66.88 239.848 61.432 239.848 54.712C239.848 47.992 239.608 43.432 239.128 41.032C239.128 40.456 239.632 40.168 240.64 40.168C243.232 40.168 244.96 41.056 245.824 42.832C245.872 43.024 245.944 43.12 246.04 43.12C246.184 43.12 246.52 42.904 247.048 42.472C248.632 41.176 250.504 40.528 252.664 40.528C254.008 40.528 255.352 40.792 256.696 41.32C259.432 42.424 260.8 44.728 260.8 48.232L260.44 53.704Z" fill="#3B7536"/>
<path d="M286.435 51.4L286.291 60.616C286.291 67 286.987 70.84 288.379 72.136C288.571 72.328 288.667 72.544 288.667 72.784C288.667 73.504 287.107 73.864 283.987 73.864C280.915 73.864 279.283 72.952 279.091 71.128C279.043 70.696 279.019 69.808 279.019 68.464L279.307 56.944C279.307 56.608 279.115 56.44 278.731 56.44C276.427 56.44 274.267 57.088 272.251 58.384C270.235 59.68 269.227 61.336 269.227 63.352C269.227 64.408 269.515 65.296 270.091 66.016C270.667 66.736 271.363 67.096 272.179 67.096C273.043 67.096 273.739 66.928 274.267 66.592C274.843 66.256 275.179 66.064 275.275 66.016C276.091 66.112 276.499 66.976 276.499 68.608C276.499 70.192 275.755 71.488 274.267 72.496C272.779 73.456 271.219 73.936 269.587 73.936C267.955 73.936 266.539 73.648 265.339 73.072C264.187 72.496 263.347 71.848 262.819 71.128C262.291 70.408 261.859 69.592 261.523 68.68C261.187 67.576 261.019 66.616 261.019 65.8C261.019 62.44 262.075 59.752 264.187 57.736C266.299 55.72 269.011 54.28 272.323 53.416C276.691 52.552 278.971 51.76 279.163 51.04C279.307 50.512 279.379 49.624 279.379 48.376C279.379 45.832 278.083 44.56 275.491 44.56C274.387 44.56 273.403 44.92 272.539 45.64C271.675 46.312 271.243 47.176 271.243 48.232L271.675 49.96C271.579 50.776 270.715 51.256 269.083 51.4L268.291 51.472C266.851 51.472 265.699 51.112 264.835 50.392C264.019 49.672 263.611 48.712 263.611 47.512C263.611 46.744 263.851 45.904 264.331 44.992C264.859 44.032 265.507 43.264 266.275 42.688C267.043 42.112 268.219 41.608 269.803 41.176C271.435 40.696 272.995 40.456 274.483 40.456C275.971 40.456 277.123 40.504 277.939 40.6C278.755 40.696 279.859 40.936 281.251 41.32C282.691 41.656 283.867 42.328 284.779 43.336C285.739 44.344 286.243 45.424 286.291 46.576C286.387 47.68 286.435 49.288 286.435 51.4Z" fill="#3B7536"/>
<path d="M314.337 64.72C314.337 67.456 313.233 69.736 311.025 71.56C308.865 73.336 306.273 74.224 303.249 74.224C298.833 74.224 295.593 72.904 293.529 70.264C291.465 67.576 290.433 63.952 290.433 59.392C290.433 54.544 291.513 50.248 293.673 46.504C294.729 44.584 296.241 43.072 298.209 41.968C300.177 40.864 302.481 40.312 305.121 40.312C309.105 40.312 311.913 41.656 313.545 44.344C314.217 45.448 314.553 46.744 314.553 48.232C314.553 50.536 313.593 52.264 311.673 53.416C310.905 53.848 310.185 54.064 309.513 54.064C308.889 54.064 308.361 54.04 307.929 53.992C307.545 53.896 307.017 53.56 306.345 52.984C305.673 52.408 305.337 51.616 305.337 50.608C305.385 50.08 305.793 49.648 306.561 49.312C307.281 48.88 307.641 48.112 307.641 47.008C307.641 45.136 306.489 44.2 304.185 44.2C303.609 44.2 302.913 44.464 302.097 44.992C301.329 45.472 300.681 46.12 300.153 46.936C299.625 47.704 299.121 48.952 298.641 50.68C298.209 52.36 297.993 53.992 297.993 55.576C297.993 57.112 298.041 58.288 298.137 59.104C298.281 59.872 298.545 60.952 298.929 62.344C299.361 63.688 300.129 64.792 301.233 65.656C302.385 66.52 303.801 66.952 305.481 66.952C307.497 66.952 309.273 66.112 310.809 64.432C311.433 63.76 311.937 62.944 312.321 61.984C312.513 61.6 312.753 61.408 313.041 61.408C313.473 61.408 313.785 61.816 313.977 62.632C314.217 63.4 314.337 64.096 314.337 64.72Z" fill="#3B7536"/>
<path d="M332.431 49.672C332.239 49.864 332.143 50.08 332.143 50.32C332.143 50.512 332.575 50.704 333.439 50.896C334.351 51.088 335.335 51.616 336.391 52.48C337.447 53.344 338.239 54.28 338.767 55.288C339.775 57.256 340.327 58.984 340.423 60.472L340.495 61.408C340.735 67.024 341.767 70.864 343.591 72.928C343.831 73.264 343.951 73.504 343.951 73.648C343.951 74.176 343.279 74.44 341.935 74.44C337.903 74.44 335.335 73.6 334.231 71.92C333.655 71.248 333.367 69.16 333.367 65.656V63.856C333.367 59.392 332.815 56.296 331.711 54.568C331.135 53.752 330.415 53.344 329.551 53.344C328.735 53.344 327.871 54.088 326.959 55.576C326.047 57.016 325.591 58.24 325.591 59.248C325.591 63.28 325.687 66.088 325.879 67.672C326.071 69.256 326.167 70.072 326.167 70.12C326.167 71.512 325.207 72.592 323.287 73.36C321.415 74.128 319.639 74.512 317.959 74.512C317.335 74.512 317.023 74.128 317.023 73.36V73.072C318.175 67.168 318.751 57.856 318.751 45.136C318.751 40.96 318.655 37.432 318.463 34.552L318.319 33.112C318.223 31.768 317.935 30.616 317.455 29.656C317.023 28.696 316.591 28.072 316.159 27.784L315.583 27.424C315.247 27.232 315.079 27.016 315.079 26.776C315.079 26.008 316.231 25.144 318.535 24.184C320.839 23.224 322.831 22.744 324.511 22.744C325.279 22.792 325.687 23.08 325.735 23.608C325.975 25.528 326.095 29.488 326.095 35.488C326.095 41.44 325.951 46.192 325.663 49.744C325.663 50.32 325.759 50.608 325.951 50.608C326.143 50.608 326.431 50.344 326.815 49.816C327.247 49.24 327.967 48.352 328.975 47.152C330.031 45.952 331.423 44.56 333.151 42.976C334.927 41.392 336.343 40.6 337.399 40.6C338.503 40.6 339.583 40.864 340.639 41.392C341.695 41.92 342.223 42.424 342.223 42.904L341.431 43.408C338.695 44.416 335.695 46.504 332.431 49.672Z" fill="#3B7536"/>
<path d="M352.125 54.712L352.197 56.512C352.197 56.8 352.389 56.944 352.773 56.944C354.309 56.8 355.653 56.416 356.805 55.792C357.957 55.12 358.821 54.376 359.397 53.56C360.549 51.784 361.173 50.248 361.269 48.952L361.341 48.088C361.341 45.496 360.309 44.2 358.245 44.2C356.709 44.2 355.461 44.872 354.501 46.216C352.917 48.328 352.125 51.16 352.125 54.712ZM367.821 64.288C367.821 66.112 367.437 67.72 366.669 69.112C365.949 70.456 365.109 71.464 364.149 72.136C363.237 72.76 362.157 73.264 360.909 73.648C359.325 74.128 357.813 74.368 356.373 74.368C352.341 74.368 349.365 72.856 347.445 69.832C345.525 66.808 344.565 62.968 344.565 58.312C344.565 53.608 345.741 49.432 348.093 45.784C350.493 42.136 354.069 40.312 358.821 40.312C363.141 40.312 366.069 41.824 367.605 44.848C368.229 46 368.541 47.104 368.541 48.16C368.541 49.168 368.493 49.984 368.397 50.608C368.301 51.184 367.965 52.072 367.389 53.272C366.813 54.472 366.045 55.552 365.085 56.512C364.125 57.472 362.613 58.384 360.549 59.248C358.485 60.112 356.061 60.688 353.277 60.976C352.893 60.976 352.701 61.144 352.701 61.48C352.701 61.912 352.845 62.56 353.133 63.424C353.469 64.24 353.829 64.936 354.213 65.512C355.269 66.856 356.829 67.528 358.893 67.528C360.957 67.528 362.709 66.856 364.149 65.512C364.917 64.792 365.541 63.904 366.021 62.848C366.213 62.464 366.453 62.272 366.741 62.272C367.077 62.272 367.341 62.536 367.533 63.064C367.725 63.592 367.821 64 367.821 64.288Z" fill="#3B7536"/>
<path d="M393.05 53.704L393.338 56.224C393.338 57.136 392.474 57.592 390.746 57.592C387.242 57.592 385.49 56.272 385.49 53.632C385.49 53.008 385.658 52.144 385.994 51.04C386.33 49.936 386.498 48.976 386.498 48.16C386.498 47.344 386.258 46.648 385.778 46.072C385.298 45.448 384.602 45.136 383.69 45.136C382.778 45.136 381.986 45.472 381.314 46.144C380.69 46.768 380.306 47.416 380.162 48.088L379.874 49.096C379.586 50.584 379.442 53.08 379.442 56.584C379.442 60.04 379.49 62.776 379.586 64.792C379.682 66.76 379.778 68.128 379.874 68.896C379.97 69.616 380.018 70.048 380.018 70.192C380.018 71.392 379.274 72.352 377.786 73.072C376.298 73.84 374.81 74.224 373.322 74.224C371.834 74.224 371.09 73.912 371.09 73.288L371.45 71.056C372.122 66.88 372.458 61.432 372.458 54.712C372.458 47.992 372.218 43.432 371.738 41.032C371.738 40.456 372.242 40.168 373.25 40.168C375.842 40.168 377.57 41.056 378.434 42.832C378.482 43.024 378.554 43.12 378.65 43.12C378.794 43.12 379.13 42.904 379.658 42.472C381.242 41.176 383.114 40.528 385.274 40.528C386.618 40.528 387.962 40.792 389.306 41.32C392.042 42.424 393.41 44.728 393.41 48.232L393.05 53.704Z" fill="#3B7536"/>
<defs>
<linearGradient id="paint0_linear" x1="117" y1="-8" x2="31" y2="138" gradientUnits="userSpaceOnUse">
<stop stop-color="#3B7536"/>
<stop offset="1" stop-color="#719D38" stop-opacity="0"/>
</linearGradient>
</defs>
</svg>
