<svg width="740" height="162" viewBox="0 0 740 162" fill="none" xmlns="http://www.w3.org/2000/svg">
<path d="M149.616 130.352C150.832 130.416 151.44 130.992 151.44 132.08V134H144.72C144.144 134 143.664 133.904 143.28 133.712C142.96 133.456 142.64 133.136 142.32 132.752L120.528 105.2C119.824 104.368 119.184 103.856 118.608 103.664C118.032 103.408 117.136 103.28 115.92 103.28H107.856V130.16L114 130.352C115.28 130.48 115.92 131.056 115.92 132.08V134H94.8V132.08C94.8 131.056 95.44 130.48 96.72 130.352L102.96 130.16V69.776L96.72 69.584C95.504 69.52 94.896 68.944 94.896 67.856V66.032H119.472C126.832 66.032 132.56 67.472 136.656 70.352C140.752 73.168 142.8 77.68 142.8 83.888C142.8 89.136 141.008 93.456 137.424 96.848C133.84 100.24 129.2 102.192 123.504 102.704C124.336 103.216 125.04 103.856 125.616 104.624L145.968 130.256L149.616 130.352ZM118.8 99.632C124.624 99.632 129.264 98.288 132.72 95.6C136.24 92.912 138 89.136 138 84.272C138 74.672 131.824 69.872 119.472 69.872H107.856V99.632H118.8ZM180.123 85.424C185.947 85.424 190.523 87.376 193.851 91.28C197.243 95.184 198.939 100.24 198.939 106.448C198.939 107.664 198.491 108.272 197.595 108.272H163.131C163.131 115.376 164.603 120.944 167.547 124.976C170.491 129.008 174.907 131.024 180.795 131.024C183.163 131.024 185.627 130.608 188.187 129.776C190.811 128.944 192.859 127.888 194.331 126.608C194.843 126.096 195.355 125.84 195.867 125.84C196.315 125.84 196.635 126 196.827 126.32L198.075 127.856C196.411 129.904 193.851 131.536 190.395 132.752C187.003 133.968 183.675 134.576 180.411 134.576C173.307 134.576 167.867 132.24 164.091 127.568C160.379 122.832 158.523 116.688 158.523 109.136C158.523 104.592 159.387 100.528 161.115 96.944C162.907 93.36 165.435 90.544 168.699 88.496C171.963 86.448 175.771 85.424 180.123 85.424ZM180.219 88.88C175.355 88.88 171.451 90.352 168.507 93.296C165.627 96.176 163.899 100.176 163.323 105.296H194.811C194.811 100.304 193.467 96.336 190.779 93.392C188.155 90.384 184.635 88.88 180.219 88.88ZM243.106 127.856C241.314 130.096 238.914 131.792 235.906 132.944C232.962 134.096 229.922 134.672 226.786 134.672C222.562 134.672 218.882 133.616 215.746 131.504C212.674 129.328 210.306 126.384 208.642 122.672C207.042 118.96 206.242 114.768 206.242 110.096C206.242 105.296 207.074 101.04 208.738 97.328C210.402 93.616 212.866 90.736 216.13 88.688C219.394 86.576 223.298 85.52 227.842 85.52C231.874 85.52 236.354 86.512 241.282 88.496V100.496H238.978C237.698 100.496 236.994 99.728 236.866 98.192C236.866 98 236.802 97.264 236.674 95.984C236.546 94.64 236.418 92.88 236.29 90.704C233.154 89.616 230.434 89.072 228.13 89.072C222.562 89.072 218.306 90.992 215.362 94.832C212.418 98.672 210.946 103.76 210.946 110.096C210.946 116.368 212.386 121.424 215.266 125.264C218.146 129.104 222.21 131.024 227.458 131.024C229.762 131.024 232.034 130.608 234.274 129.776C236.514 128.944 238.274 127.888 239.554 126.608C240.066 126.096 240.546 125.84 240.994 125.84C241.378 125.84 241.666 126 241.858 126.32L243.106 127.856ZM260.672 74C259.456 74 258.432 73.584 257.6 72.752C256.832 71.92 256.448 70.896 256.448 69.68C256.448 68.528 256.832 67.568 257.6 66.8C258.432 65.968 259.456 65.552 260.672 65.552C261.824 65.552 262.784 65.968 263.552 66.8C264.384 67.568 264.8 68.528 264.8 69.68C264.8 70.896 264.384 71.92 263.552 72.752C262.784 73.584 261.824 74 260.672 74ZM267.968 130.352C269.248 130.48 269.888 131.056 269.888 132.08V134H251.456V132.08C251.456 131.056 252.096 130.48 253.376 130.352L258.368 130.16V90.032L253.376 89.84C252.096 89.712 251.456 89.136 251.456 88.112V86.192H262.976V130.16L267.968 130.352ZM322.614 109.808C322.614 114.544 321.782 118.8 320.118 122.576C318.454 126.288 316.054 129.232 312.918 131.408C309.782 133.52 306.102 134.576 301.878 134.576C298.742 134.576 295.958 134.032 293.526 132.944C291.158 131.792 289.078 130 287.286 127.568V147.056L292.278 147.248C293.558 147.376 294.198 147.952 294.198 148.976V150.896H275.766V148.976C275.766 147.952 276.406 147.376 277.686 147.248L282.678 147.056V89.936L277.686 89.744C276.406 89.616 275.766 89.04 275.766 88.016V86.192H285.174C285.75 86.192 286.134 86.288 286.326 86.48C286.518 86.608 286.614 86.896 286.614 87.344L287.094 94.832C289.27 91.888 291.798 89.584 294.678 87.92C297.558 86.256 300.662 85.424 303.99 85.424C310.262 85.424 314.934 87.6 318.006 91.952C321.078 96.304 322.614 102.256 322.614 109.808ZM317.91 109.808C317.91 96.048 312.854 89.168 302.742 89.168C296.598 89.168 291.446 92.272 287.286 98.48V123.536C290.55 128.528 295.094 131.024 300.918 131.024C306.55 131.024 310.774 129.104 313.59 125.264C316.47 121.36 317.91 116.208 317.91 109.808ZM351.592 85.424C357.416 85.424 361.992 87.376 365.32 91.28C368.712 95.184 370.408 100.24 370.408 106.448C370.408 107.664 369.96 108.272 369.064 108.272H334.6C334.6 115.376 336.072 120.944 339.016 124.976C341.96 129.008 346.376 131.024 352.264 131.024C354.632 131.024 357.096 130.608 359.656 129.776C362.28 128.944 364.328 127.888 365.8 126.608C366.312 126.096 366.824 125.84 367.336 125.84C367.784 125.84 368.104 126 368.296 126.32L369.544 127.856C367.88 129.904 365.32 131.536 361.864 132.752C358.472 133.968 355.144 134.576 351.88 134.576C344.776 134.576 339.336 132.24 335.56 127.568C331.848 122.832 329.992 116.688 329.992 109.136C329.992 104.592 330.856 100.528 332.584 96.944C334.376 93.36 336.904 90.544 340.168 88.496C343.432 86.448 347.24 85.424 351.592 85.424ZM351.688 88.88C346.824 88.88 342.92 90.352 339.976 93.296C337.096 96.176 335.368 100.176 334.792 105.296H366.28C366.28 100.304 364.936 96.336 362.248 93.392C359.624 90.384 356.104 88.88 351.688 88.88ZM453.92 81.008H448.448C447.232 81.008 446.464 80.4 446.144 79.184C445.952 78.096 445.792 76.784 445.664 75.248H431.552V124.496L434.336 124.976C434.656 125.04 434.912 125.104 435.104 125.168C435.36 125.232 435.584 125.264 435.776 125.264L436.352 125.36C438.016 125.744 438.848 126.736 438.848 128.336V134H411.392V128.336C411.392 126.736 412.192 125.744 413.792 125.36L414.368 125.264C414.56 125.264 414.752 125.232 414.944 125.168C415.2 125.104 415.488 125.04 415.808 124.976L418.592 124.496V75.152H404.48C404.352 76.816 404.192 78.16 404 79.184C403.68 80.4 402.944 81.008 401.792 81.008H396.224V64.592H453.92V81.008ZM489.902 83.888C492.398 83.888 494.414 84.432 495.95 85.52L494.414 94.448C494.35 95.024 494.158 95.408 493.838 95.6C493.454 95.856 493.006 95.984 492.494 95.984C492.046 95.984 491.406 95.888 490.574 95.696C489.422 95.44 488.302 95.312 487.214 95.312C484.718 95.312 482.606 95.984 480.878 97.328C479.278 98.544 477.806 100.56 476.462 103.376V124.496L481.262 125.36C482.862 125.744 483.661 126.736 483.661 128.336V134H457.358V128.336C457.358 126.736 458.158 125.744 459.758 125.36L464.558 124.496V94.256L459.758 93.392C458.158 93.008 457.358 92.016 457.358 90.416V84.752H471.566C472.782 84.752 473.614 84.976 474.062 85.424C474.51 85.872 474.83 86.64 475.022 87.728L475.79 93.68C477.518 90.544 479.566 88.144 481.934 86.48C484.366 84.752 487.022 83.888 489.902 83.888ZM543.138 125.264C544.738 125.648 545.538 126.64 545.538 128.24V133.904H534.21C532.994 133.904 532.098 133.744 531.522 133.424C530.882 133.168 530.402 132.464 530.082 131.312L529.026 127.856C527.746 129.072 526.53 130.064 525.378 130.832C524.482 131.472 523.234 132.176 521.634 132.944C520.482 133.456 519.138 133.872 517.602 134.192C516.002 134.512 514.402 134.672 512.802 134.672C510.69 134.672 508.77 134.384 507.042 133.808C505.186 133.168 503.682 132.336 502.53 131.312C501.186 130.096 500.194 128.688 499.554 127.088C498.85 125.36 498.498 123.44 498.498 121.328C498.498 119.408 498.978 117.552 499.938 115.76C500.898 113.904 502.53 112.272 504.834 110.864C507.266 109.328 510.274 108.112 513.858 107.216C517.634 106.256 522.338 105.776 527.97 105.776V102.896C527.97 99.696 527.266 97.232 525.858 95.504C524.514 93.904 522.498 93.104 519.81 93.104C517.762 93.104 516.162 93.328 515.01 93.776C513.538 94.352 512.418 94.864 511.65 95.312L509.058 96.752C508.354 97.2 507.49 97.424 506.466 97.424C505.634 97.424 504.93 97.232 504.354 96.848C503.97 96.592 503.522 96.08 503.01 95.312L500.802 91.568C506.562 86.32 513.378 83.696 521.25 83.696C524.13 83.696 526.722 84.176 529.026 85.136C531.266 86.096 533.154 87.408 534.69 89.072C536.418 91.056 537.634 93.072 538.338 95.12C539.106 97.424 539.49 99.984 539.49 102.8V124.592L542.082 125.072L543.138 125.264ZM527.97 112.976C524.386 112.976 521.506 113.2 519.33 113.648C516.962 114.16 515.074 114.736 513.666 115.376C512.258 116.016 511.266 116.784 510.69 117.68C510.114 118.512 509.826 119.504 509.826 120.656C509.826 122.832 510.434 124.336 511.65 125.168C512.93 126.064 514.53 126.512 516.45 126.512C517.666 126.512 518.786 126.416 519.81 126.224C520.898 126.032 521.89 125.68 522.786 125.168C523.938 124.528 524.802 123.984 525.378 123.536C526.274 122.832 527.138 122.064 527.97 121.232V112.976ZM590.225 126.608C588.689 128.336 587.281 129.648 586.001 130.544C584.721 131.376 583.121 132.208 581.201 133.04C579.793 133.552 578.097 133.968 576.113 134.288C574.577 134.544 572.817 134.672 570.833 134.672C567.697 134.672 564.849 134.128 562.289 133.04C559.601 131.888 557.265 130.224 555.281 128.048C553.169 125.744 551.569 123.088 550.48 120.08C549.329 116.88 548.753 113.264 548.753 109.232C548.753 105.584 549.265 102.256 550.289 99.248C551.377 96.176 552.913 93.488 554.897 91.184C556.881 88.944 559.377 87.184 562.385 85.904C565.457 84.624 568.881 83.984 572.656 83.984C576.753 83.984 581.937 85.168 588.209 87.536L588.113 102.704H582.641C581.489 102.704 580.753 102.096 580.433 100.88L579.665 93.968C577.297 93.328 575.185 93.008 573.329 93.008C571.217 93.008 569.393 93.392 567.857 94.16C566.257 94.928 564.977 95.984 564.017 97.328C562.865 98.928 562.065 100.656 561.617 102.512C561.105 104.688 560.849 106.928 560.849 109.232C560.849 111.856 561.137 114.192 561.713 116.24C562.289 118.352 563.089 120.08 564.113 121.424C565.201 122.768 566.481 123.824 567.953 124.592C569.553 125.296 571.249 125.648 573.041 125.648C575.025 125.648 576.561 125.424 577.649 124.976C579.057 124.4 580.049 123.888 580.625 123.44C580.945 123.184 581.265 122.96 581.585 122.768C581.969 122.512 582.353 122.224 582.737 121.904C583.249 121.456 583.889 121.232 584.657 121.232C585.681 121.232 586.417 121.584 586.865 122.288L590.225 126.608ZM645.423 125.36C647.023 125.744 647.823 126.736 647.823 128.336V134H635.247C634.415 134 633.615 133.84 632.847 133.52C632.207 133.264 631.631 132.72 631.119 131.888L618.639 113.168C618.191 112.4 617.711 111.92 617.199 111.728C616.751 111.536 616.015 111.44 614.991 111.44H612.303V124.496L615.183 124.976L616.623 125.264L617.199 125.36C618.799 125.744 619.599 126.736 619.599 128.336V134H593.199V128.336C593.199 126.736 593.999 125.744 595.599 125.36L596.175 125.264C596.367 125.264 596.559 125.232 596.751 125.168C597.007 125.104 597.295 125.04 597.615 124.976L600.495 124.496V72.176L597.615 71.696C597.295 71.632 597.007 71.568 596.751 71.504C596.559 71.44 596.367 71.408 596.175 71.408L595.599 71.312C593.999 70.928 593.199 69.936 593.199 68.336V62.672H612.303V103.472H614.511C615.343 103.472 615.983 103.376 616.431 103.184C616.815 103.056 617.295 102.64 617.871 101.936L624.687 93.584L623.823 93.392C622.223 93.008 621.423 92.016 621.423 90.416V84.752H633.231V84.848C633.487 84.784 633.807 84.752 634.191 84.752H644.751V90.416C644.751 92.016 643.951 93.008 642.351 93.392L641.583 93.488L639.663 93.776L637.071 94.16L629.775 102.992L628.047 104.912C627.407 105.552 626.799 106.032 626.223 106.352C626.991 106.928 627.567 107.472 627.951 107.984C628.143 108.24 628.367 108.528 628.623 108.848C628.879 109.168 629.167 109.584 629.487 110.096L639.375 124.496C640.783 124.752 641.807 124.912 642.447 124.976C643.855 125.104 644.527 125.168 644.463 125.168L645.423 125.36ZM674.746 83.984C677.882 83.984 680.73 84.464 683.29 85.424C685.722 86.32 687.962 87.792 690.01 89.84C691.866 91.696 693.338 94.032 694.426 96.848C695.514 99.728 696.058 102.864 696.058 106.256C696.058 107.024 695.994 107.792 695.866 108.56C695.738 109.264 695.61 109.712 695.482 109.904C695.354 110.224 695.066 110.48 694.618 110.672C694.362 110.8 693.914 110.864 693.274 110.864H662.842C663.226 115.92 664.602 119.632 666.97 122C669.338 124.368 672.474 125.552 676.378 125.552C678.362 125.552 679.994 125.328 681.274 124.88C682.682 124.432 683.898 123.92 684.922 123.344C685.37 123.088 685.818 122.864 686.266 122.672C686.778 122.416 687.258 122.16 687.706 121.904C688.41 121.456 689.146 121.232 689.914 121.232C690.426 121.232 690.874 121.328 691.258 121.52C691.578 121.648 691.866 121.904 692.122 122.288L695.578 126.608C694.106 128.272 692.634 129.584 691.162 130.544C689.434 131.632 687.738 132.464 686.074 133.04C684.474 133.552 682.65 133.968 680.602 134.288C679.002 134.544 677.21 134.672 675.226 134.672C671.706 134.672 668.538 134.128 665.722 133.04C662.906 131.952 660.346 130.256 658.042 127.952C655.866 125.776 654.138 123.024 652.858 119.696C651.642 116.496 651.034 112.688 651.034 108.272C651.034 105.072 651.578 101.936 652.666 98.864C653.69 95.984 655.258 93.392 657.37 91.088C659.354 88.912 661.818 87.184 664.762 85.904C667.706 84.624 671.034 83.984 674.746 83.984ZM674.938 92.432C671.546 92.432 668.858 93.424 666.874 95.408C664.954 97.328 663.706 100.08 663.13 103.664H685.402C685.402 102.32 685.178 100.88 684.73 99.344C684.346 98.128 683.706 96.944 682.81 95.792C681.978 94.768 680.89 93.968 679.546 93.392C678.074 92.752 676.538 92.432 674.938 92.432ZM731.964 83.888C734.46 83.888 736.476 84.432 738.012 85.52L736.476 94.448C736.412 95.024 736.22 95.408 735.9 95.6C735.516 95.856 735.068 95.984 734.556 95.984C734.108 95.984 733.468 95.888 732.636 95.696C731.484 95.44 730.364 95.312 729.276 95.312C726.78 95.312 724.668 95.984 722.94 97.328C721.34 98.544 719.868 100.56 718.524 103.376V124.496L723.324 125.36C724.924 125.744 725.724 126.736 725.724 128.336V134H699.42V128.336C699.42 126.736 700.22 125.744 701.82 125.36L706.62 124.496V94.256L701.82 93.392C700.22 93.008 699.42 92.016 699.42 90.416V84.752H713.628C714.844 84.752 715.676 84.976 716.124 85.424C716.572 85.872 716.892 86.64 717.084 87.728L717.852 93.68C719.58 90.544 721.628 88.144 723.996 86.48C726.428 84.752 729.084 83.888 731.964 83.888Z" fill="black"/>
<path d="M0 124H76V132C76 133.105 75.1046 134 74 134H2C0.895432 134 0 133.105 0 132V124Z" fill="#5D6263"/>
<path d="M0 106C0 104.895 0.895431 104 2 104H8C9.10457 104 10 104.895 10 106V124H0V106Z" fill="#5D6263"/>
<path d="M66 106C66 104.895 66.8954 104 68 104H74C75.1046 104 76 104.895 76 106V124H66V106Z" fill="#5D6263"/>
<path d="M17 100H60V100C60 104.418 56.4183 108 52 108H25C20.5817 108 17 104.418 17 100V100Z" fill="#B78843"/>
<ellipse cx="50.7792" cy="47.8326" rx="21.5" ry="3.5" transform="rotate(20.5752 50.7792 47.8326)" fill="#E85B5B"/>
<path d="M50.2445 19.5983L56.2853 27.0325L69.8619 36.4495L72.577 41.8348L79.7968 46.4489L73.9729 48.2914L68.0654 40.3298L60.2212 34.4998L49.6127 24.8611L44.4206 21.4408L50.2445 19.5983Z" fill="#6EC28B"/>
<rect x="15.7496" y="78.1256" width="49" height="8.14588" rx="4.07294" transform="rotate(5.28021 15.7496 78.1256)" fill="#534126"/>
<path d="M68.4206 5.7915C76.0625 2.59294 84.8504 6.19497 88.049 13.8369L93.0683 25.8288C96.2668 33.4707 92.6648 42.2586 85.0229 45.4571V45.4571L68.4206 5.7915V5.7915Z" fill="#B78843"/>
<ellipse cx="77.066" cy="10.5103" rx="1" ry="2" transform="rotate(44.7236 77.066 10.5103)" fill="white"/>
<ellipse cx="88.2629" cy="37.2615" rx="1" ry="2" transform="rotate(44.7236 88.2629 37.2615)" fill="white"/>
<ellipse cx="87.0837" cy="21.4942" rx="1" ry="2" transform="rotate(44.7236 87.0837 21.4942)" fill="white"/>
<ellipse cx="78.3099" cy="18.6622" rx="1" ry="2" transform="rotate(44.7236 78.3099 18.6622)" fill="white"/>
<ellipse cx="81.3778" cy="13.0418" rx="1" ry="2" transform="rotate(44.7236 81.3778 13.0418)" fill="white"/>
<path d="M46.3603 58.5476L65.4206 69L37.5316 75.9391L24.5188 53.8153L46.3603 58.5476Z" fill="#F8BC23"/>
</svg>
